<svg width="18" height="16" viewBox="0 0 18 16" fill="none" xmlns="http://www.w3.org/2000/svg">
<path id="Vector" d="M8.99914 0C13.9706 0 18 3.03769 18 6.78588C18 10.5332 13.9706 13.5709 9 13.5709C8.50506 13.5712 8.01062 13.5407 7.51971 13.4797L3.74143 15.8699C3.312 16.0896 3.16029 16.0656 3.33686 15.5275L4.10143 12.4782C1.63286 11.2678 0 9.17026 0 6.78588C0 3.03851 4.02857 0 9 0M14.064 6.68224L15.324 5.50166C15.3967 5.42863 15.4373 5.33115 15.4371 5.22976C15.437 5.12838 15.3962 5.031 15.3233 4.95813C15.2504 4.88527 15.1512 4.84261 15.0464 4.83915C14.9416 4.83568 14.8396 4.87168 14.7617 4.93955L13.1091 6.48659V5.20817C13.1091 5.10439 13.0665 5.00485 12.9906 4.93147C12.9148 4.85808 12.8119 4.81685 12.7046 4.81685C12.5973 4.81685 12.4944 4.85808 12.4185 4.93147C12.3426 5.00485 12.3 5.10439 12.3 5.20817V7.32808C12.2849 7.38856 12.2849 7.45166 12.3 7.51214V8.70516C12.3 8.80894 12.3426 8.90847 12.4185 8.98186C12.4944 9.05525 12.5973 9.09647 12.7046 9.09647C12.8119 9.09647 12.9148 9.05525 12.9906 8.98186C13.0665 8.90847 13.1091 8.80894 13.1091 8.70516V7.57514L13.4751 7.23274L14.6991 8.91823C14.7297 8.96031 14.7685 8.99615 14.8134 9.02372C14.8583 9.05128 14.9084 9.07002 14.9607 9.07888C15.0131 9.08773 15.0668 9.08652 15.1187 9.07531C15.1705 9.06411 15.2196 9.04313 15.2631 9.01357C15.3066 8.98401 15.3437 8.94645 15.3722 8.90304C15.4007 8.85962 15.4201 8.81121 15.4292 8.76055C15.4384 8.7099 15.4371 8.65799 15.4256 8.6078C15.414 8.55761 15.3923 8.51012 15.3617 8.46804L14.064 6.68224ZM11.5286 8.27736H10.2771V5.22061C10.2724 5.12005 10.2277 5.02514 10.1524 4.95562C10.0771 4.88609 9.97708 4.8473 9.873 4.8473C9.76892 4.8473 9.66885 4.88609 9.59358 4.95562C9.51832 5.02514 9.47365 5.12005 9.46886 5.22061V8.66868C9.46886 8.88423 9.64886 9.06 9.87257 9.06H11.5286C11.6359 9.06 11.7388 9.01877 11.8146 8.94538C11.8905 8.87199 11.9331 8.77246 11.9331 8.66868C11.9331 8.56489 11.8905 8.46536 11.8146 8.39197C11.7388 8.31859 11.6359 8.27736 11.5286 8.27736ZM6.50829 7.37285L7.10486 5.95681L7.65171 7.37202L6.50829 7.37285ZM8.67086 7.77661L8.67257 7.76334C8.67237 7.66476 8.63346 7.56993 8.56371 7.49804L7.66714 5.17667C7.62956 5.06604 7.55797 4.96915 7.46193 4.89893C7.3659 4.8287 7.25 4.7885 7.12971 4.78369C7.00855 4.78318 6.89009 4.81836 6.79011 4.88456C6.69012 4.95076 6.61335 5.04484 6.57 5.15428L5.14543 8.53271C5.10485 8.6288 5.1054 8.73654 5.14695 8.83224C5.1885 8.92794 5.26766 9.00375 5.367 9.043C5.46634 9.08225 5.57774 9.08172 5.67667 9.04153C5.77561 9.00134 5.85399 8.92478 5.89457 8.82869L6.17914 8.15466H7.95343L8.20886 8.81791C8.22628 8.86749 8.25382 8.91318 8.28983 8.95227C8.32584 8.99137 8.3696 9.02308 8.41851 9.04552C8.46743 9.06796 8.5205 9.08068 8.57458 9.08292C8.62867 9.08516 8.68267 9.07688 8.73339 9.05857C8.78411 9.04025 8.83051 9.01228 8.86985 8.97631C8.90919 8.94033 8.94066 8.89709 8.9624 8.84913C8.98415 8.80118 8.99572 8.74949 8.99644 8.69713C8.99715 8.64478 8.987 8.59281 8.96657 8.54432L8.67086 7.77661ZM5.82257 5.22475C5.82257 5.12111 5.78007 5.0217 5.70438 4.94834C5.62869 4.87498 5.52601 4.83365 5.41886 4.83343H2.63743C2.53013 4.83343 2.42723 4.87466 2.35135 4.94805C2.27548 5.02143 2.23286 5.12097 2.23286 5.22475C2.23286 5.32854 2.27548 5.42807 2.35135 5.50146C2.42723 5.57484 2.53013 5.61607 2.63743 5.61607H3.63171V8.71345C3.63171 8.81723 3.67434 8.91676 3.75021 8.99015C3.82608 9.06354 3.92899 9.10476 4.03629 9.10476C4.14358 9.10476 4.24649 9.06354 4.32236 8.99015C4.39823 8.91676 4.44086 8.81723 4.44086 8.71345V5.61607H5.418C5.5253 5.61607 5.6282 5.57484 5.70407 5.50146C5.77995 5.42807 5.82257 5.32854 5.82257 5.22475Z" fill="#381E1F"/>
</svg>
