<svg width="19" height="20" viewBox="0 0 19 20" fill="none" xmlns="http://www.w3.org/2000/svg">
<path d="M7.98277 13.922L4.31836 10.0638L5.53954 8.77836L7.98277 11.3493L12.8675 6.20654L14.0895 7.49291L7.98277 13.922Z" fill="#0F9AFF"/>
<path fill-rule="evenodd" clip-rule="evenodd" d="M0 3.63636C0 2.67194 0.36396 1.74702 1.01181 1.06507C1.65967 0.383116 2.53834 0 3.45455 0H15.5455C16.4617 0 17.3403 0.383116 17.9882 1.06507C18.636 1.74702 19 2.67194 19 3.63636V16.3636C19 17.3281 18.636 18.253 17.9882 18.9349C17.3403 19.6169 16.4617 20 15.5455 20H3.45455C2.53834 20 1.65967 19.6169 1.01181 18.9349C0.36396 18.253 0 17.3281 0 16.3636V3.63636ZM3.45455 1.81818H15.5455C16.0036 1.81818 16.4429 2.00974 16.7668 2.35071C17.0907 2.69169 17.2727 3.15415 17.2727 3.63636V16.3636C17.2727 16.8458 17.0907 17.3083 16.7668 17.6493C16.4429 17.9903 16.0036 18.1818 15.5455 18.1818H3.45455C2.99644 18.1818 2.55711 17.9903 2.23318 17.6493C1.90925 17.3083 1.72727 16.8458 1.72727 16.3636V3.63636C1.72727 3.15415 1.90925 2.69169 2.23318 2.35071C2.55711 2.00974 2.99644 1.81818 3.45455 1.81818Z" fill="#525252"/>
</svg>
