<svg width="42" height="42" viewBox="0 0 42 42" fill="none" xmlns="http://www.w3.org/2000/svg">
<rect width="42" height="42" rx="21" fill="white"/>
<path d="M16.1123 27L24.9585 17M9 30C9 30.5297 9.18591 31.0378 9.51694 31.4128C9.84797 31.7878 10.2971 31.9989 10.7657 32H30.2343C30.7029 31.9989 31.152 31.7878 31.4831 31.4128C31.8141 31.0378 32 30.5297 32 30V25.932C31.2361 25.6978 30.5616 25.1859 30.0807 24.4752C29.5998 23.7646 29.3393 22.8947 29.3393 22C29.3393 21.1053 29.5998 20.2354 30.0807 19.5248C30.5616 18.8141 31.2361 18.3022 32 18.068V14C32 13.4703 31.8141 12.9622 31.4831 12.5872C31.152 12.2122 30.7029 12.0011 30.2343 12H10.7657C10.2971 12.0011 9.84797 12.2122 9.51694 12.5872C9.18591 12.9622 9 13.4703 9 14V18.06C9.77 18.2889 10.4513 18.7997 10.9374 19.5125C11.4236 20.2253 11.6872 21.1 11.6872 22C11.6872 22.9 11.4236 23.7747 10.9374 24.4875C10.4513 25.2003 9.77 25.7111 9 25.94V30Z" stroke="black" stroke-width="1.5" stroke-linecap="round" stroke-linejoin="round"/>
<path d="M16.9959 19C17.2306 19 17.4556 18.8946 17.6215 18.7071C17.7874 18.5196 17.8806 18.2652 17.8806 18C17.8806 17.7348 17.7874 17.4804 17.6215 17.2929C17.4556 17.1054 17.2306 17 16.9959 17C16.7613 17 16.5363 17.1054 16.3704 17.2929C16.2045 17.4804 16.1113 17.7348 16.1113 18C16.1113 18.2652 16.2045 18.5196 16.3704 18.7071C16.5363 18.8946 16.7613 19 16.9959 19ZM24.0729 27C24.3075 27 24.5325 26.8946 24.6984 26.7071C24.8643 26.5196 24.9575 26.2652 24.9575 26C24.9575 25.7348 24.8643 25.4804 24.6984 25.2929C24.5325 25.1054 24.3075 25 24.0729 25C23.8383 25 23.6132 25.1054 23.4473 25.2929C23.2815 25.4804 23.1883 25.7348 23.1883 26C23.1883 26.2652 23.2815 26.5196 23.4473 26.7071C23.6132 26.8946 23.8383 27 24.0729 27Z" stroke="black" stroke-width="1.5" stroke-linecap="round" stroke-linejoin="round"/>
</svg>
