<svg width="83" height="83" viewBox="0 0 83 83" fill="none" xmlns="http://www.w3.org/2000/svg">
<path d="M20.1667 3H11.5833C9.30689 3 7.12369 3.90431 5.514 5.514C3.90431 7.12369 3 9.30689 3 11.5833V20.1667M63.0833 3H71.6667C73.9431 3 76.1263 3.90431 77.736 5.514C79.3457 7.12369 80.25 9.30689 80.25 11.5833V20.1667M58.7917 24.4583V33.0417M24.4583 24.4583V33.0417M28.75 58.7917C28.75 58.7917 33.0417 63.0833 41.625 63.0833C50.2083 63.0833 54.5 58.7917 54.5 58.7917M41.625 24.4583V45.9167H37.3333M20.1667 80.25H11.5833C9.30689 80.25 7.12369 79.3457 5.514 77.736C3.90431 76.1263 3 73.9431 3 71.6667V63.0833M63.0833 80.25H71.6667C73.9431 80.25 76.1263 79.3457 77.736 77.736C79.3457 76.1263 80.25 73.9431 80.25 71.6667V63.0833" stroke="black" stroke-width="5" stroke-linecap="round" stroke-linejoin="round"/>
</svg>
