<svg width="88" height="88" viewBox="0 0 88 88" fill="none" xmlns="http://www.w3.org/2000/svg">
<path fill-rule="evenodd" clip-rule="evenodd" d="M65.3032 16.3899C65.0099 16.3899 64.7165 16.3166 64.4599 16.1699C57.4199 12.5399 51.3332 10.9999 44.0365 10.9999C36.7765 10.9999 29.8832 12.7233 23.6132 16.1699C22.7332 16.6466 21.6332 16.3166 21.1199 15.4366C20.6432 14.5566 20.9732 13.4199 21.8532 12.9433C28.6732 9.23992 36.1532 7.33325 44.0365 7.33325C51.8465 7.33325 58.6665 9.05659 66.1465 12.9066C67.0632 13.3833 67.3932 14.4833 66.9165 15.3633C66.5865 16.0233 65.9632 16.3899 65.3032 16.3899ZM12.8332 35.6399C12.4665 35.6399 12.0999 35.5299 11.7699 35.3099C10.9265 34.7233 10.7432 33.5866 11.3299 32.7433C14.9599 27.6099 19.5799 23.5766 25.0799 20.7533C36.5932 14.8133 51.3332 14.7766 62.8832 20.7166C68.3832 23.5399 73.0032 27.5366 76.6332 32.6333C77.2199 33.4399 77.0365 34.6133 76.1932 35.1999C75.3499 35.7866 74.2132 35.6033 73.6265 34.7599C70.3265 30.1399 66.1465 26.5099 61.1965 23.9799C50.6732 18.5899 37.2165 18.5899 26.7299 24.0166C21.7432 26.5833 17.5632 30.2499 14.2632 34.8699C13.9699 35.3833 13.4199 35.6399 12.8332 35.6399ZM35.7499 79.8966C35.2732 79.8966 34.7965 79.7132 34.4665 79.3466C31.2765 76.1566 29.5532 74.1032 27.0965 69.6666C24.5665 65.1566 23.2465 59.6566 23.2465 53.7533C23.2465 42.8633 32.5599 33.9899 43.9999 33.9899C55.4399 33.9899 64.7532 42.8633 64.7532 53.7533C64.7532 54.7799 63.9465 55.5866 62.9199 55.5866C61.8932 55.5866 61.0865 54.7799 61.0865 53.7533C61.0865 44.8799 53.4232 37.6566 43.9999 37.6566C34.5765 37.6566 26.9132 44.8799 26.9132 53.7533C26.9132 59.0333 28.0865 63.9099 30.3232 67.8699C32.6699 72.0866 34.2832 73.8832 37.1065 76.7432C37.8032 77.4766 37.8032 78.6133 37.1065 79.3466C36.7032 79.7132 36.2265 79.8966 35.7499 79.8966ZM62.0399 73.1133C57.6765 73.1133 53.8265 72.0133 50.6732 69.8499C45.2099 66.1466 41.9465 60.1333 41.9465 53.7533C41.9465 52.7266 42.7532 51.9199 43.7799 51.9199C44.8065 51.9199 45.6132 52.7266 45.6132 53.7533C45.6132 58.9233 48.2532 63.7999 52.7265 66.8066C55.3299 68.5666 58.3732 69.4099 62.0399 69.4099C62.9199 69.4099 64.3865 69.2999 65.8532 69.0433C66.8432 68.8599 67.7965 69.5199 67.9799 70.5466C68.1632 71.5366 67.5032 72.4899 66.4765 72.6733C64.3865 73.0766 62.5532 73.1133 62.0399 73.1133ZM54.6699 80.6666C54.5232 80.6666 54.3399 80.6299 54.1932 80.5933C48.3632 78.9799 44.5499 76.8166 40.5532 72.8933C35.4199 67.7966 32.5965 61.0133 32.5965 53.7533C32.5965 47.8133 37.6565 42.9733 43.8899 42.9733C50.1232 42.9733 55.1832 47.8133 55.1832 53.7533C55.1832 57.6766 58.5932 60.8666 62.8099 60.8666C67.0265 60.8666 70.4365 57.6766 70.4365 53.7533C70.4365 39.9299 58.5199 28.7099 43.8532 28.7099C33.4399 28.7099 23.9065 34.5033 19.6165 43.4866C18.1865 46.4566 17.4532 49.9399 17.4532 53.7533C17.4532 56.6133 17.7099 61.1233 19.9099 66.9899C20.2765 67.9433 19.7999 69.0066 18.8465 69.3366C17.8932 69.7033 16.8299 69.1899 16.4999 68.2733C14.7032 63.4699 13.8232 58.7033 13.8232 53.7533C13.8232 49.3533 14.6665 45.3566 16.3165 41.8733C21.1932 31.6433 32.0099 25.0066 43.8532 25.0066C60.5365 25.0066 74.1032 37.8766 74.1032 53.7166C74.1032 59.6566 69.0432 64.4966 62.8099 64.4966C56.5765 64.4966 51.5165 59.6566 51.5165 53.7166C51.5165 49.7933 48.1065 46.6033 43.8899 46.6033C39.6732 46.6033 36.2632 49.7933 36.2632 53.7166C36.2632 59.9866 38.6832 65.8533 43.1199 70.2533C46.6032 73.6999 49.9399 75.6066 55.1099 77.0366C56.0999 77.2933 56.6499 78.3199 56.3932 79.2733C56.2099 80.1166 55.4399 80.6666 54.6699 80.6666Z" fill="black"/>
</svg>
