<svg width="64" height="64" viewBox="0 0 64 64" fill="none" xmlns="http://www.w3.org/2000/svg">
<rect width="64" height="64" rx="32" fill="#FED52A"/>
<path d="M23.3776 23.3776C23.497 23.2579 23.6389 23.163 23.7951 23.0982C23.9512 23.0334 24.1187 23 24.2877 23C24.4568 23 24.6242 23.0334 24.7804 23.0982C24.9366 23.163 25.0784 23.2579 25.1978 23.3776L32.0003 30.1827L38.8029 23.3776C38.9224 23.2581 39.0643 23.1633 39.2204 23.0986C39.3766 23.034 39.5439 23.0007 39.7129 23.0007C39.882 23.0007 40.0493 23.034 40.2055 23.0986C40.3616 23.1633 40.5035 23.2581 40.623 23.3776C40.7425 23.4972 40.8374 23.639 40.902 23.7952C40.9667 23.9513 41 24.1187 41 24.2877C41 24.4568 40.9667 24.6241 40.902 24.7803C40.8374 24.9364 40.7425 25.0783 40.623 25.1978L33.8179 32.0003L40.623 38.8029C40.7425 38.9224 40.8374 39.0643 40.902 39.2204C40.9667 39.3766 41 39.5439 41 39.7129C41 39.882 40.9667 40.0493 40.902 40.2055C40.8374 40.3616 40.7425 40.5035 40.623 40.623C40.5035 40.7425 40.3616 40.8374 40.2055 40.902C40.0493 40.9667 39.882 41 39.7129 41C39.5439 41 39.3766 40.9667 39.2204 40.902C39.0643 40.8374 38.9224 40.7425 38.8029 40.623L32.0003 33.8179L25.1978 40.623C25.0783 40.7425 24.9364 40.8374 24.7803 40.902C24.6241 40.9667 24.4568 41 24.2877 41C24.1187 41 23.9513 40.9667 23.7952 40.902C23.639 40.8374 23.4972 40.7425 23.3776 40.623C23.2581 40.5035 23.1633 40.3616 23.0986 40.2055C23.034 40.0493 23.0007 39.882 23.0007 39.7129C23.0007 39.5439 23.034 39.3766 23.0986 39.2204C23.1633 39.0643 23.2581 38.9224 23.3776 38.8029L30.1827 32.0003L23.3776 25.1978C23.2579 25.0784 23.163 24.9366 23.0982 24.7804C23.0334 24.6242 23 24.4568 23 24.2877C23 24.1187 23.0334 23.9512 23.0982 23.7951C23.163 23.6389 23.2579 23.497 23.3776 23.3776Z" fill="black"/>
</svg>
