<svg width="9" height="8" viewBox="0 0 9 8" fill="none" xmlns="http://www.w3.org/2000/svg">
<path d="M3.29727 1.63475e-05C2.52409 -0.00396969 1.77136 0.72149 2.115 1.62233H0.818182C0.601187 1.62233 0.393079 1.70633 0.23964 1.85583C0.0862011 2.00534 0 2.20811 0 2.41954V3.21675C0 3.32247 0.0431005 3.42385 0.11982 3.49861C0.196539 3.57336 0.300593 3.61536 0.409091 3.61536H4.09091V2.41954H4.90909V3.61536H8.59091C8.69941 3.61536 8.80346 3.57336 8.88018 3.49861C8.9569 3.42385 9 3.32247 9 3.21675V2.41954C9 2.20811 8.9138 2.00534 8.76036 1.85583C8.60692 1.70633 8.39881 1.62233 8.18182 1.62233H6.885C7.36364 0.3189 5.56364 -0.601876 4.73318 0.522188L4.5 0.825127L4.26682 0.514216C4.00909 0.159458 3.65318 0.00400239 3.29727 1.63475e-05ZM3.27273 0.825127C3.63682 0.825127 3.82091 1.25562 3.56318 1.50674C3.30545 1.75786 2.86364 1.57849 2.86364 1.22373C2.86364 1.11801 2.90674 1.01663 2.98346 0.941875C3.06018 0.867123 3.16423 0.825127 3.27273 0.825127ZM5.72727 0.825127C6.09136 0.825127 6.27545 1.25562 6.01773 1.50674C5.76 1.75786 5.31818 1.57849 5.31818 1.22373C5.31818 1.11801 5.36128 1.01663 5.438 0.941875C5.51472 0.867123 5.61877 0.825127 5.72727 0.825127ZM0.409091 4.01396V7.20279C0.409091 7.41423 0.495292 7.617 0.648731 7.7665C0.80217 7.91601 1.01028 8 1.22727 8H7.77273C7.98972 8 8.19783 7.91601 8.35127 7.7665C8.50471 7.617 8.59091 7.41423 8.59091 7.20279V4.01396H4.90909V7.20279H4.09091V4.01396H0.409091Z" fill="#FED52A"/>
</svg>
