<svg width="47" height="46" viewBox="0 0 47 46" fill="none" xmlns="http://www.w3.org/2000/svg">
<rect x="1" y="0.5" width="45" height="45" rx="9.5" fill="#FED52A"/>
<rect x="1" y="0.5" width="45" height="45" rx="9.5" stroke="#CBAA22"/>
<rect width="24" height="24" transform="translate(12 11)" fill="white"/>
<path d="M23.25 13C19.031 13.004 16.849 13.08 15.464 14.464C14.08 15.85 14.004 18.031 14 22.25H18.914C18.5544 21.8012 18.2962 21.28 18.157 20.722C17.62 18.57 19.57 16.62 21.722 17.157C22.294 17.3 22.812 17.563 23.25 17.914V13ZM14 23.75C14.004 27.968 14.08 30.15 15.464 31.535C16.85 32.92 19.031 32.995 23.25 33V25.123C22.8556 25.9125 22.249 26.5764 21.4983 27.0404C20.7476 27.5045 19.8825 27.7502 19 27.75C18.8011 27.75 18.6103 27.671 18.4697 27.5303C18.329 27.3897 18.25 27.1989 18.25 27C18.25 26.8011 18.329 26.6103 18.4697 26.4697C18.6103 26.329 18.8011 26.25 19 26.25C19.7316 26.25 20.4419 26.0032 21.0158 25.5495C21.5898 25.0958 21.994 24.4618 22.163 23.75H14ZM24.75 33C28.968 32.995 31.15 32.92 32.535 31.535C33.92 30.151 33.995 27.968 34 23.75H25.837C26.006 24.4618 26.4102 25.0958 26.9842 25.5495C27.5581 26.0032 28.2684 26.25 29 26.25C29.1989 26.25 29.3897 26.329 29.5303 26.4697C29.671 26.6103 29.75 26.8011 29.75 27C29.75 27.1989 29.671 27.3897 29.5303 27.5303C29.3897 27.671 29.1989 27.75 29 27.75C28.1175 27.7502 27.2524 27.5045 26.5017 27.0404C25.751 26.5764 25.1444 25.9125 24.75 25.123V33ZM34 22.25C33.995 18.031 33.92 15.849 32.535 14.464C31.151 13.08 28.968 13.004 24.75 13V17.914C25.1985 17.5546 25.7194 17.2964 26.277 17.157C28.43 16.619 30.381 18.569 29.842 20.722C29.7031 21.2799 29.4452 21.8011 29.086 22.25H34Z" fill="#FED52A"/>
<path d="M21.358 18.613C21.8983 18.748 22.378 19.0596 22.7208 19.4985C23.0636 19.9373 23.2499 20.4782 23.25 21.035V22.25H22.035C21.4781 22.2499 20.9373 22.0636 20.4984 21.7208C20.0596 21.378 19.7479 20.8983 19.613 20.358C19.5531 20.117 19.5565 19.8646 19.6229 19.6252C19.6894 19.3859 19.8166 19.1678 19.9922 18.9922C20.1678 18.8166 20.3859 18.6894 20.6252 18.6229C20.8645 18.5565 21.117 18.5531 21.358 18.613ZM24.75 21.035V22.25H25.965C27.11 22.25 28.109 21.47 28.387 20.358C28.447 20.1169 28.4436 19.8643 28.3772 19.6249C28.3107 19.3855 28.1834 19.1673 28.0076 18.9917C27.8318 18.816 27.6136 18.6888 27.3741 18.6225C27.1347 18.5561 26.8821 18.5529 26.641 18.613C26.1009 18.7481 25.6215 19.0599 25.2788 19.4987C24.9362 19.9375 24.7501 20.4783 24.75 21.035Z" fill="#FED52A"/>
</svg>
