<svg width="22" height="22" viewBox="0 0 22 22" fill="none" xmlns="http://www.w3.org/2000/svg">
<g clip-path="url(#clip0_335_3218)">
<path d="M19.1953 10.0832C18.7737 6.26067 15.7395 3.2265 11.917 2.80484V0.916504H10.0837V2.80484C6.26116 3.2265 3.22699 6.26067 2.80533 10.0832H0.916992V11.9165H2.80533C3.22699 15.739 6.26116 18.7732 10.0837 19.1948V21.0832H11.917V19.1948C15.7395 18.7732 18.7737 15.739 19.1953 11.9165H21.0837V10.0832H19.1953ZM11.0003 17.4165C7.45283 17.4165 4.58366 14.5473 4.58366 10.9998C4.58366 7.45234 7.45283 4.58317 11.0003 4.58317C14.5478 4.58317 17.417 7.45234 17.417 10.9998C17.417 14.5473 14.5478 17.4165 11.0003 17.4165Z" fill="black"/>
</g>
<defs>
<clipPath id="clip0_335_3218">
<rect width="22" height="22" fill="white"/>
</clipPath>
</defs>
</svg>
