<svg width="22" height="21" viewBox="0 0 22 21" fill="none" xmlns="http://www.w3.org/2000/svg">
<path d="M9.74882 19.1263L9.74811 19.1257C6.90587 16.4443 4.58625 14.2551 2.97119 12.2009C1.36239 10.1545 0.5 8.29934 0.5 6.29428C0.5 3.02679 2.95661 0.5 6.05 0.5C7.80506 0.5 9.50319 1.35254 10.6131 2.70852L11 3.18123L11.3869 2.70852C12.4968 1.35254 14.1949 0.5 15.95 0.5C19.0434 0.5 21.5 3.02679 21.5 6.29428C21.5 8.29934 20.6376 10.1546 19.0287 12.2024C17.4169 14.254 15.1035 16.4411 12.2692 19.1208L12.2526 19.1365L12.2515 19.1375L11.0013 20.3126L9.74882 19.1263Z" stroke="white"/>
</svg>
