<svg width="15" height="14" viewBox="0 0 15 14" fill="none" xmlns="http://www.w3.org/2000/svg">
<path d="M6.75223 12.6261L6.75151 12.6254C4.81034 10.8348 3.23927 9.38446 2.14747 8.02661C1.06167 6.6762 0.5 5.47668 0.5 4.19619C0.5 2.11436 2.09917 0.5 4.125 0.5C5.27538 0.5 6.38977 1.04724 7.1166 1.9155L7.5 2.37349L7.8834 1.9155C8.61023 1.04724 9.72462 0.5 10.875 0.5C12.9008 0.5 14.5 2.11436 14.5 4.19619C14.5 5.47669 13.9383 6.67623 12.8524 8.02769C11.7611 9.38592 10.191 10.8373 8.2511 12.6306L8.24916 12.6324L8.24809 12.6334L7.50129 13.3197L6.75223 12.6261Z" fill="black" fill-opacity="0.1" stroke="white"/>
</svg>
