<svg width="52" height="52" viewBox="0 0 52 52" fill="none" xmlns="http://www.w3.org/2000/svg">
<rect width="52" height="52" rx="26" fill="#373535"/>
<path d="M24.7488 35.1263L24.7481 35.1257C21.9059 32.4443 19.5863 30.2551 17.9712 28.2009C16.3624 26.1545 15.5 24.2993 15.5 22.2943C15.5 19.0268 17.9566 16.5 21.05 16.5C22.8051 16.5 24.5032 17.3525 25.6131 18.7085L26 19.1812L26.3869 18.7085C27.4968 17.3525 29.1949 16.5 30.95 16.5C34.0434 16.5 36.5 19.0268 36.5 22.2943C36.5 24.2993 35.6376 26.1546 34.0287 28.2024C32.4169 30.254 30.1035 32.4411 27.2692 35.1208L27.2526 35.1365L27.2515 35.1375L26.0013 36.3126L24.7488 35.1263Z" stroke="white"/>
</svg>
