<svg width="18" height="12" viewBox="0 0 18 12" fill="none" xmlns="http://www.w3.org/2000/svg">
<path d="M14.7273 7.5V1.5C14.7273 0.675 13.9909 0 13.0909 0H1.63636C0.736364 0 0 0.675 0 1.5V7.5C0 8.325 0.736364 9 1.63636 9H13.0909C13.9909 9 14.7273 8.325 14.7273 7.5ZM7.36364 6.75C6.00545 6.75 4.90909 5.745 4.90909 4.5C4.90909 3.255 6.00545 2.25 7.36364 2.25C8.72182 2.25 9.81818 3.255 9.81818 4.5C9.81818 5.745 8.72182 6.75 7.36364 6.75ZM18 2.25V10.5C18 11.325 17.2636 12 16.3636 12H2.45455V10.5H16.3636V2.25H18Z" fill="#606060"/>
</svg>
