<svg width="27" height="27" viewBox="0 0 27 27" fill="none" xmlns="http://www.w3.org/2000/svg">
<path d="M4.5 7.875C4.5 7.57663 4.61853 7.29048 4.82951 7.07951C5.04048 6.86853 5.32663 6.75 5.625 6.75H21.375C21.6734 6.75 21.9595 6.86853 22.1705 7.07951C22.3815 7.29048 22.5 7.57663 22.5 7.875C22.5 8.17337 22.3815 8.45952 22.1705 8.67049C21.9595 8.88147 21.6734 9 21.375 9H5.625C5.32663 9 5.04048 8.88147 4.82951 8.67049C4.61853 8.45952 4.5 8.17337 4.5 7.875ZM4.5 13.5C4.5 13.2016 4.61853 12.9155 4.82951 12.7045C5.04048 12.4935 5.32663 12.375 5.625 12.375H21.375C21.6734 12.375 21.9595 12.4935 22.1705 12.7045C22.3815 12.9155 22.5 13.2016 22.5 13.5C22.5 13.7984 22.3815 14.0845 22.1705 14.2955C21.9595 14.5065 21.6734 14.625 21.375 14.625H5.625C5.32663 14.625 5.04048 14.5065 4.82951 14.2955C4.61853 14.0845 4.5 13.7984 4.5 13.5ZM4.5 19.125C4.5 18.8266 4.61853 18.5405 4.82951 18.3295C5.04048 18.1185 5.32663 18 5.625 18H21.375C21.6734 18 21.9595 18.1185 22.1705 18.3295C22.3815 18.5405 22.5 18.8266 22.5 19.125C22.5 19.4234 22.3815 19.7095 22.1705 19.9205C21.9595 20.1315 21.6734 20.25 21.375 20.25H5.625C5.32663 20.25 5.04048 20.1315 4.82951 19.9205C4.61853 19.7095 4.5 19.4234 4.5 19.125Z" fill="#171717"/>
</svg>
