<svg width="47" height="46" viewBox="0 0 47 46" fill="none" xmlns="http://www.w3.org/2000/svg">
<g id="Frame 427320782">
<rect x="1" y="0.5" width="45" height="45" rx="9.5" fill="#FED52A"/>
<rect x="1" y="0.5" width="45" height="45" rx="9.5" stroke="#CBAA22"/>
<path id="Vector" d="M18.1406 19.65C18.1406 20.0062 18.0723 20.3427 17.9355 20.6594C17.7988 20.976 17.6133 21.2531 17.3789 21.4906C17.1445 21.7281 16.8711 21.9161 16.5586 22.0547C16.2461 22.1932 15.9141 22.2625 15.5625 22.2625C15.2109 22.2625 14.8789 22.1932 14.5664 22.0547C14.2539 21.9161 13.9805 21.7281 13.7461 21.4906C13.5117 21.2531 13.3262 20.976 13.1895 20.6594C13.0527 20.3427 12.9844 20.0062 12.9844 19.65C12.9844 19.2938 13.0527 18.9573 13.1895 18.6406C13.3262 18.324 13.5117 18.0469 13.7461 17.8094C13.9805 17.5719 14.2539 17.3839 14.5664 17.2453C14.8789 17.1068 15.2109 17.0375 15.5625 17.0375C15.9141 17.0375 16.2461 17.1068 16.5586 17.2453C16.8711 17.3839 17.1445 17.5719 17.3789 17.8094C17.6133 18.0469 17.7988 18.324 17.9355 18.6406C18.0723 18.9573 18.1406 19.2938 18.1406 19.65ZM15.5625 20.8375C15.8848 20.8375 16.1582 20.7237 16.3828 20.4961C16.6074 20.2685 16.7246 19.9865 16.7344 19.65C16.7344 19.3234 16.6221 19.0464 16.3975 18.8187C16.1729 18.5911 15.8945 18.4724 15.5625 18.4625C15.2402 18.4625 14.9668 18.5763 14.7422 18.8039C14.5176 19.0315 14.4004 19.3135 14.3906 19.65C14.3906 19.9766 14.5029 20.2536 14.7275 20.4813C14.9521 20.7089 15.2305 20.8276 15.5625 20.8375ZM23.0625 22.7375C23.4141 22.7375 23.7461 22.8068 24.0586 22.9453C24.3711 23.0839 24.6445 23.2719 24.8789 23.5094C25.1133 23.7469 25.2988 24.024 25.4355 24.3406C25.5723 24.6573 25.6406 24.9938 25.6406 25.35C25.6406 25.7063 25.5723 26.0427 25.4355 26.3594C25.2988 26.676 25.1133 26.9531 24.8789 27.1906C24.6445 27.4281 24.3711 27.6161 24.0586 27.7547C23.7461 27.8932 23.4141 27.9625 23.0625 27.9625C22.7109 27.9625 22.3789 27.8932 22.0664 27.7547C21.7539 27.6161 21.4805 27.4281 21.2461 27.1906C21.0117 26.9531 20.8262 26.676 20.6895 26.3594C20.5527 26.0427 20.4844 25.7063 20.4844 25.35C20.4844 24.9938 20.5527 24.6573 20.6895 24.3406C20.8262 24.024 21.0117 23.7469 21.2461 23.5094C21.4805 23.2719 21.7539 23.0839 22.0664 22.9453C22.3789 22.8068 22.7109 22.7375 23.0625 22.7375ZM23.0625 26.5375C23.3848 26.5375 23.6582 26.4237 23.8828 26.1961C24.1074 25.9685 24.2246 25.6865 24.2344 25.35C24.2344 25.0234 24.1221 24.7464 23.8975 24.5188C23.6729 24.2911 23.3945 24.1724 23.0625 24.1625C22.7402 24.1625 22.4668 24.2763 22.2422 24.5039C22.0176 24.7315 21.9004 25.0135 21.8906 25.35C21.8906 25.6766 22.0029 25.9536 22.2275 26.1813C22.4521 26.4089 22.7305 26.5276 23.0625 26.5375ZM21.334 16.8H22.916L17.291 28.2H15.709L21.334 16.8ZM29.625 13L39 22.5L29.625 32H9V13H29.625ZM28.8486 30.1L36.3486 22.5L28.8486 14.9H10.875V30.1H28.8486ZM31.5 21.55C31.7539 21.55 31.9736 21.644 32.1592 21.832C32.3447 22.0201 32.4375 22.2427 32.4375 22.5C32.4375 22.7573 32.3447 22.9799 32.1592 23.168C31.9736 23.356 31.7539 23.45 31.5 23.45C31.2461 23.45 31.0264 23.356 30.8408 23.168C30.6553 22.9799 30.5625 22.7573 30.5625 22.5C30.5625 22.2427 30.6553 22.0201 30.8408 21.832C31.0264 21.644 31.2461 21.55 31.5 21.55Z" fill="white"/>
</g>
</svg>
