<svg width="46" height="46" viewBox="0 0 46 46" fill="none" xmlns="http://www.w3.org/2000/svg">
<rect width="46" height="46" rx="10" fill="#FED52A"/>
<rect x="0.5" y="0.5" width="45" height="45" rx="9.5" stroke="black" stroke-opacity="0.2"/>
<path d="M28.8906 21.8281C28.8906 21.957 28.7852 22.0625 28.6562 22.0625H27.0156C26.8867 22.0625 26.7812 21.957 26.7812 21.8281V19.25H20.2188V21.8281C20.2188 21.957 20.1133 22.0625 19.9844 22.0625H18.3438C18.2148 22.0625 18.1094 21.957 18.1094 21.8281V19.25H15.2969V32.6094H31.7031V19.25H28.8906V21.8281Z" fill="#F5F5F5" fill-opacity="0.15"/>
<path d="M32.875 17.1406H28.8906V16.6719C28.8906 13.6953 26.4766 11.2812 23.5 11.2812C20.5234 11.2812 18.1094 13.6953 18.1094 16.6719V17.1406H14.125C13.6064 17.1406 13.1875 17.5596 13.1875 18.0781V33.7812C13.1875 34.2998 13.6064 34.7188 14.125 34.7188H32.875C33.3936 34.7188 33.8125 34.2998 33.8125 33.7812V18.0781C33.8125 17.5596 33.3936 17.1406 32.875 17.1406ZM20.2188 16.6719C20.2188 14.8584 21.6865 13.3906 23.5 13.3906C25.3135 13.3906 26.7812 14.8584 26.7812 16.6719V17.1406H20.2188V16.6719ZM31.7031 32.6094H15.2969V19.25H18.1094V21.8281C18.1094 21.957 18.2148 22.0625 18.3438 22.0625H19.9844C20.1133 22.0625 20.2188 21.957 20.2188 21.8281V19.25H26.7812V21.8281C26.7812 21.957 26.8867 22.0625 27.0156 22.0625H28.6562C28.7852 22.0625 28.8906 21.957 28.8906 21.8281V19.25H31.7031V32.6094Z" fill="white"/>
</svg>
