<svg width="45" height="45" viewBox="0 0 45 45" fill="none" xmlns="http://www.w3.org/2000/svg">
<rect x="0.5" y="0.5" width="44" height="44" rx="9.5" fill="#FED52A"/>
<rect x="0.5" y="0.5" width="44" height="44" rx="9.5" stroke="#CBAA22"/>
<path d="M19.1925 11.1713C17.0663 11.1601 14.9963 13.2076 15.9412 15.7501H12.375C11.7783 15.7501 11.206 15.9871 10.784 16.4091C10.3621 16.831 10.125 17.4033 10.125 18.0001V20.2501C10.125 20.5484 10.2435 20.8346 10.4545 21.0456C10.6655 21.2565 10.9516 21.3751 11.25 21.3751H21.375V18.0001H23.625V21.3751H33.75C34.0484 21.3751 34.3345 21.2565 34.5455 21.0456C34.7565 20.8346 34.875 20.5484 34.875 20.2501V18.0001C34.875 17.4033 34.6379 16.831 34.216 16.4091C33.794 15.9871 33.2217 15.7501 32.625 15.7501H29.0588C30.375 12.0713 25.425 9.47256 23.1412 12.6451L22.5 13.5001L21.8588 12.6226C21.15 11.6213 20.1713 11.1826 19.1925 11.1713ZM19.125 13.5001C20.1263 13.5001 20.6325 14.7151 19.9237 15.4238C19.215 16.1326 18 15.6263 18 14.6251C18 14.3267 18.1185 14.0405 18.3295 13.8296C18.5405 13.6186 18.8266 13.5001 19.125 13.5001ZM25.875 13.5001C26.8762 13.5001 27.3825 14.7151 26.6737 15.4238C25.965 16.1326 24.75 15.6263 24.75 14.6251C24.75 14.3267 24.8685 14.0405 25.0795 13.8296C25.2905 13.6186 25.5766 13.5001 25.875 13.5001ZM11.25 22.5001V31.5001C11.25 32.0968 11.4871 32.6691 11.909 33.0911C12.331 33.513 12.9033 33.7501 13.5 33.7501H31.5C32.0967 33.7501 32.669 33.513 33.091 33.0911C33.5129 32.6691 33.75 32.0968 33.75 31.5001V22.5001H23.625V31.5001H21.375V22.5001H11.25Z" fill="white"/>
</svg>
