<svg width="46" height="45" viewBox="0 0 46 45" fill="none" xmlns="http://www.w3.org/2000/svg">
<rect x="1" y="0.5" width="44" height="44" rx="9.5" fill="#FED52A"/>
<rect x="1" y="0.5" width="44" height="44" rx="9.5" stroke="#CBAA22"/>
<g clip-path="url(#clip0_162_940)">
<path d="M25.671 21.0981C25.568 21.0974 25.4689 21.1374 25.3954 21.2095C25.3218 21.2816 25.2798 21.3799 25.2784 21.4829V24.3585C25.2798 24.4617 25.322 24.5601 25.3958 24.6322C25.4697 24.7044 25.5691 24.7443 25.6723 24.7432H34.3342C34.4374 24.7443 34.5368 24.7044 34.6107 24.6322C34.6845 24.5601 34.7267 24.4617 34.7281 24.3585V21.4829C34.7267 21.3796 34.6845 21.2812 34.6107 21.2091C34.5368 21.1369 34.4374 21.097 34.3342 21.0981H25.671ZM30.9828 11.9513C32.1814 12.0085 33.0433 12.2451 33.5893 12.7469C34.1288 13.2435 34.4057 13.9624 34.4603 14.914V17.6401C34.4576 17.8722 34.3628 18.0938 34.1968 18.2561C34.0308 18.4185 33.8072 18.5083 33.575 18.5059C33.4599 18.5072 33.3457 18.4859 33.2389 18.4432C33.1321 18.4004 33.0347 18.337 32.9524 18.2566C32.87 18.1762 32.8044 18.0804 32.7591 17.9746C32.7138 17.8688 32.6898 17.7551 32.6884 17.6401L32.6897 14.9634C32.6611 14.4694 32.5428 14.1626 32.3738 14.0066C32.21 13.8558 31.7108 13.7206 30.9399 13.6816H13.9411C13.243 13.7076 12.7893 13.8402 12.5696 14.0287C12.4006 14.173 12.2732 14.5708 12.2719 15.2585L12.268 30.5595C12.333 31.2276 12.4799 31.6736 12.6684 31.8959C12.8114 32.0649 13.2547 32.2339 13.9073 32.3171H30.9581C31.7563 32.3327 32.2269 32.2131 32.3855 32.0532C32.561 31.8751 32.6884 31.4071 32.6884 30.6414V27.9829C32.6884 27.5058 33.0849 27.1171 33.575 27.1171C34.0638 27.1171 34.4603 27.5058 34.4603 27.9829V30.6414C34.4603 31.8113 34.2211 32.6863 33.6608 33.2544C33.0836 33.8394 32.1658 34.0733 30.9399 34.0473L13.802 34.0435C12.6359 33.9083 11.8 33.5884 11.3021 32.9995C10.851 32.4665 10.6001 31.7061 10.5 30.6427V15.2572C10.5026 14.1184 10.7756 13.2617 11.4022 12.7261C11.9768 12.2321 12.8062 11.9916 13.9073 11.95L30.9828 11.9513ZM34.3342 19.3665C35.5302 19.3665 36.5 20.3142 36.5 21.4829V24.3585C36.5 25.5272 35.5302 26.4749 34.3342 26.4749H25.6723C24.4763 26.4749 23.5065 25.5259 23.5065 24.3585V21.4829C23.5065 20.3142 24.4763 19.3665 25.6723 19.3665H34.3342ZM27.8381 21.8885C27.2401 21.8885 26.7552 22.3565 26.7552 22.9324C26.7552 23.5096 27.2401 23.9763 27.8381 23.9763C28.4361 23.9763 28.921 23.5083 28.921 22.9324C28.921 22.3552 28.4361 21.8872 27.8381 21.8872" fill="white"/>
</g>
<defs>
<clipPath id="clip0_162_940">
<rect width="26" height="26" fill="white" transform="translate(10.5 10)"/>
</clipPath>
</defs>
</svg>
