<svg width="22" height="22" viewBox="0 0 22 22" fill="none" xmlns="http://www.w3.org/2000/svg">
<path fill-rule="evenodd" clip-rule="evenodd" d="M20.573 10.9528H18.6423C18.4539 10.9528 18.2891 11.1117 18.2891 11.2933V20.8262C18.2891 21.0078 18.1242 21.1667 17.9359 21.1667H14.7336C14.5452 21.1667 14.3804 21.0078 14.3804 20.8262V14.9249C14.3804 14.7433 14.2156 14.5844 14.0272 14.5844H7.9052C7.71683 14.5844 7.55201 14.7433 7.55201 14.9249V20.8262C7.55201 21.0078 7.38719 21.1667 7.19882 21.1667H4.02008C3.83171 21.1667 3.66689 21.0078 3.66689 20.8262V11.2933C3.66689 11.1117 3.50207 10.9528 3.3137 10.9528H1.35937C1.02972 10.9528 0.888442 10.5897 1.10036 10.3627L10.7072 1.10214C10.8485 0.965954 11.0839 0.965954 11.2252 1.10214L20.8321 10.3627C21.044 10.5897 20.8791 10.9528 20.573 10.9528Z" stroke="#181818" stroke-width="1.6" stroke-linecap="round" stroke-linejoin="round"/>
</svg>
