<svg width="213" height="40" viewBox="0 0 213 40" fill="none" xmlns="http://www.w3.org/2000/svg">
<path d="M0.132812 40.0008V0.0668945H7.58532V40.0008H0.132812ZM11.2524 39.9724V0.0668945H15.0378V39.9724H11.2524ZM22.4903 39.9724V0.0668945H26.1574V39.9724H22.4903ZM41.0624 39.9724V0.0668945H44.7294V39.9724H41.0624ZM55.9674 39.9724V0.0668945H63.3015V39.9724H55.9674ZM74.5395 39.9724V0.0668945H78.2065V39.9724H74.5395ZM81.992 39.9724V0.0668945H85.659V39.9724H81.992ZM89.4445 39.9724V0.0668945H93.1115V39.9724H89.4445ZM104.231 39.9724V0.0668945H111.684V20.0196V39.9724H104.231ZM122.804 39.9724V0.0668945H130.256V39.9724H122.804ZM137.708 39.9724V0.0668945H145.161V39.9724H137.708ZM152.614 39.9724V0.0668945H160.066V39.9724H152.614ZM163.733 39.9724V0.0668945H171.186V39.9724H163.733ZM182.424 39.9724V0.0668945H193.543V39.9724H182.424ZM197.21 39.9724V0.0668945H200.996V39.9724H197.21ZM204.663 40.0008V0.0668945H212.115V40.0008H204.663Z" fill="black"/>
</svg>
