<svg width="21" height="20" viewBox="0 0 21 20" fill="none" xmlns="http://www.w3.org/2000/svg">
<path d="M7.69364 4.08689e-05C5.88955 -0.00992423 4.13318 1.80372 4.935 4.05584H1.90909C1.40277 4.05584 0.917184 4.26582 0.55916 4.63958C0.201136 5.01334 0 5.52028 0 6.04886V8.04188C0 8.30617 0.100568 8.55963 0.27958 8.74652C0.458592 8.9334 0.701384 9.03839 0.954545 9.03839H9.54545V6.04886H11.4545V9.03839H20.0455C20.2986 9.03839 20.5414 8.9334 20.7204 8.74652C20.8994 8.55963 21 8.30617 21 8.04188V6.04886C21 5.52028 20.7989 5.01334 20.4408 4.63958C20.0828 4.26582 19.5972 4.05584 19.0909 4.05584H16.065C17.1818 0.797249 12.9818 -1.50469 11.0441 1.30547L10.5 2.06282L9.95591 1.28554C9.35455 0.398645 8.52409 0.010006 7.69364 4.08689e-05ZM7.63636 2.06282C8.48591 2.06282 8.91545 3.13905 8.31409 3.76685C7.71273 4.39465 6.68182 3.94622 6.68182 3.05933C6.68182 2.79504 6.78239 2.54157 6.9614 2.35469C7.14041 2.16781 7.3832 2.06282 7.63636 2.06282ZM13.3636 2.06282C14.2132 2.06282 14.6427 3.13905 14.0414 3.76685C13.44 4.39465 12.4091 3.94622 12.4091 3.05933C12.4091 2.79504 12.5097 2.54157 12.6887 2.35469C12.8677 2.16781 13.1105 2.06282 13.3636 2.06282ZM0.954545 10.0349V18.007C0.954545 18.5356 1.15568 19.0425 1.51371 19.4163C1.87173 19.79 2.35731 20 2.86364 20H18.1364C18.6427 20 19.1283 19.79 19.4863 19.4163C19.8443 19.0425 20.0455 18.5356 20.0455 18.007V10.0349H11.4545V18.007H9.54545V10.0349H0.954545Z" fill="white"/>
</svg>
