<svg width="14" height="14" viewBox="0 0 14 14" fill="none" xmlns="http://www.w3.org/2000/svg">
<path d="M12.8333 0H1.16667C0.857247 0 0.560501 0.122916 0.341709 0.341709C0.122916 0.560501 0 0.857247 0 1.16667V12.8333C0 13.1428 0.122916 13.4395 0.341709 13.6583C0.560501 13.8771 0.857247 14 1.16667 14H12.8333C13.1428 14 13.4395 13.8771 13.6583 13.6583C13.8771 13.4395 14 13.1428 14 12.8333V1.16667C14 0.857247 13.8771 0.560501 13.6583 0.341709C13.4395 0.122916 13.1428 0 12.8333 0ZM11.0833 7.58333H7.58333V11.0833C7.58333 11.238 7.52188 11.3864 7.41248 11.4958C7.30308 11.6052 7.15471 11.6667 7 11.6667C6.84529 11.6667 6.69692 11.6052 6.58752 11.4958C6.47813 11.3864 6.41667 11.238 6.41667 11.0833V7.58333H2.91667C2.76196 7.58333 2.61358 7.52188 2.50419 7.41248C2.39479 7.30308 2.33333 7.15471 2.33333 7C2.33333 6.84529 2.39479 6.69692 2.50419 6.58752C2.61358 6.47813 2.76196 6.41667 2.91667 6.41667H6.41667V2.91667C6.41667 2.76196 6.47813 2.61358 6.58752 2.50419C6.69692 2.39479 6.84529 2.33333 7 2.33333C7.15471 2.33333 7.30308 2.39479 7.41248 2.50419C7.52188 2.61358 7.58333 2.76196 7.58333 2.91667V6.41667H11.0833C11.238 6.41667 11.3864 6.47813 11.4958 6.58752C11.6052 6.69692 11.6667 6.84529 11.6667 7C11.6667 7.15471 11.6052 7.30308 11.4958 7.41248C11.3864 7.52188 11.238 7.58333 11.0833 7.58333Z" fill="#FED52A"/>
</svg>
