<svg width="77" height="71" viewBox="0 0 77 71" fill="none" xmlns="http://www.w3.org/2000/svg">
<path fill-rule="evenodd" clip-rule="evenodd" d="M38.5 62.125C42.2919 62.125 46.0467 61.4363 49.55 60.0983C53.0533 58.7603 56.2364 56.7991 58.9177 54.3267C61.599 51.8544 63.7259 48.9192 65.177 45.6889C66.6281 42.4587 67.375 38.9964 67.375 35.5C67.375 32.0036 66.6281 28.5413 65.177 25.3111C63.7259 22.0808 61.599 19.1456 58.9177 16.6733C56.2364 14.2009 53.0533 12.2397 49.55 10.9017C46.0467 9.56368 42.2919 8.875 38.5 8.875C30.8419 8.875 23.4974 11.6801 18.0823 16.6733C12.6672 21.6664 9.625 28.4386 9.625 35.5C9.625 42.5614 12.6672 49.3336 18.0823 54.3267C23.4974 59.3199 30.8419 62.125 38.5 62.125ZM37.7557 46.2683L53.7973 28.5183L48.8693 24.7317L35.0735 39.9937L27.935 33.4085L23.3984 37.5915L33.0234 46.4665L35.5066 48.7563L37.7557 46.2683Z" fill="#FED52A"/>
</svg>
