<svg width="14" height="14" viewBox="0 0 14 14" fill="none" xmlns="http://www.w3.org/2000/svg">
<path d="M9.8 0V0.7H11.2V1.4H11.9V2.1H12.6V2.8H13.3V4.2H14V9.8H13.3V11.2H12.6V11.9H11.9V12.6H11.2V13.3H9.8V14H4.2V13.3H2.8V12.6H2.1V11.9H1.4V11.2H0.7V9.8H0V4.2H0.7V2.8H1.4V2.1H2.1V1.4H2.8V0.7H4.2V0H9.8ZM9.1 1.4H4.9V2.1H3.5V2.8H2.8V3.5H2.1V4.9H1.4V9.1H2.1V10.5H2.8V11.2H3.5V11.9H4.9V12.6H9.1V11.9H10.5V11.2H11.2V10.5H11.9V9.1H12.6V4.9H11.9V3.5H11.2V2.8H10.5V2.1H9.1V1.4ZM4.9 3.5H8.4V4.2H9.1V7H8.4V7.7H6.3V10.5H4.9V3.5ZM6.3 4.9V6.3H7.7V4.9H6.3Z" fill="#FED52A"/>
</svg>
