<svg width="26" height="24" viewBox="0 0 26 24" fill="none" xmlns="http://www.w3.org/2000/svg">
<path d="M23.4 5.05263H20.566C20.709 4.66105 20.8 4.23158 20.8 3.78947C20.8 1.69263 19.058 0 16.9 0C15.535 0 14.352 0.682105 13.65 1.70526L13 2.55158L12.35 1.69263C11.648 0.682105 10.465 0 9.1 0C6.942 0 5.2 1.69263 5.2 3.78947C5.2 4.23158 5.291 4.66105 5.434 5.05263H2.6C1.157 5.05263 0.013 6.17684 0.013 7.57895L0 21.4737C0 22.8758 1.157 24 2.6 24H23.4C24.843 24 26 22.8758 26 21.4737V7.57895C26 6.17684 24.843 5.05263 23.4 5.05263ZM16.9 2.52632C17.615 2.52632 18.2 3.09474 18.2 3.78947C18.2 4.48421 17.615 5.05263 16.9 5.05263C16.185 5.05263 15.6 4.48421 15.6 3.78947C15.6 3.09474 16.185 2.52632 16.9 2.52632ZM9.1 2.52632C9.815 2.52632 10.4 3.09474 10.4 3.78947C10.4 4.48421 9.815 5.05263 9.1 5.05263C8.385 5.05263 7.8 4.48421 7.8 3.78947C7.8 3.09474 8.385 2.52632 9.1 2.52632ZM23.4 21.4737H2.6V18.9474H23.4V21.4737ZM23.4 15.1579H2.6V7.57895H9.204L6.5 11.1537L8.606 12.6316L11.7 8.53895L13 6.82105L14.3 8.53895L17.394 12.6316L19.5 11.1537L16.796 7.57895H23.4V15.1579Z" fill="#FED52A"/>
</svg>
