<svg width="18" height="18" viewBox="0 0 18 18" fill="none" xmlns="http://www.w3.org/2000/svg">
<path fill-rule="evenodd" clip-rule="evenodd" d="M11.5302 9.97367C12.9672 9.11959 13.9304 7.59212 13.9304 5.84798C13.9304 3.1748 11.6759 1 8.90514 1C6.1344 1 3.87993 3.1748 3.87993 5.84798C3.87993 7.59212 4.84309 9.11959 6.28006 9.97367C3.17726 10.6451 1 12.4792 1 14.6989C1 16.5153 5.96927 17 8.90514 17C11.841 17 16.8103 16.5153 16.8103 14.6989C16.8103 12.4792 14.633 10.6451 11.5302 9.97367ZM4.91452 5.84798C4.91452 3.72624 6.70462 2 8.9045 2C11.1044 2 12.8945 3.72624 12.8945 5.84798C12.8945 7.96973 11.1044 9.69564 8.9045 9.69564C6.70462 9.69564 4.91452 7.96973 4.91452 5.84798ZM2.03493 14.6957C2.15797 15.1401 4.68422 16.0001 8.90453 16.0001C13.1276 16.0001 15.6541 15.1392 15.7741 14.695C15.7703 12.4895 12.69 10.6958 8.90453 10.6958C5.11873 10.6958 2.03813 12.4898 2.03493 14.6957Z" fill="#606060"/>
<path d="M11.5302 9.97367L11.2748 9.54386L10.1818 10.1935L11.4245 10.4624L11.5302 9.97367ZM6.28006 9.97367L6.38581 10.4624L7.62846 10.1935L6.53553 9.54386L6.28006 9.97367ZM2.03493 14.6957L1.53493 14.6949L1.53483 14.7632L1.55305 14.829L2.03493 14.6957ZM15.7741 14.695L16.2568 14.8254L16.2742 14.7609L16.2741 14.6941L15.7741 14.695ZM13.4304 5.84798C13.4304 7.40111 12.5731 8.77215 11.2748 9.54386L11.7857 10.4035C13.3612 9.46703 14.4304 7.78314 14.4304 5.84798H13.4304ZM8.90514 1.5C11.4168 1.5 13.4304 3.46773 13.4304 5.84798H14.4304C14.4304 2.88188 11.9349 0.5 8.90514 0.5V1.5ZM4.37993 5.84798C4.37993 3.46773 6.39346 1.5 8.90514 1.5V0.5C5.87534 0.5 3.37993 2.88188 3.37993 5.84798H4.37993ZM6.53553 9.54386C5.23714 8.77215 4.37993 7.40111 4.37993 5.84798H3.37993C3.37993 7.78314 4.44904 9.46703 6.0246 10.4035L6.53553 9.54386ZM1.5 14.6989C1.5 13.7657 1.955 12.8803 2.80671 12.1311C3.66128 11.3795 4.89791 10.7843 6.38581 10.4624L6.17431 9.48498C4.55941 9.83444 3.15601 10.4921 2.14625 11.3803C1.13363 12.271 0.5 13.4124 0.5 14.6989H1.5ZM8.90514 16.5C7.45589 16.5 5.51861 16.3797 3.95736 16.0419C3.17242 15.8721 2.51991 15.6549 2.07574 15.3937C1.62256 15.1273 1.5 14.8886 1.5 14.6989H0.5C0.5 15.4174 0.998596 15.9205 1.56891 16.2558C2.14822 16.5964 2.92152 16.8409 3.74587 17.0193C5.40324 17.3779 7.41852 17.5 8.90514 17.5V16.5ZM16.3103 14.6989C16.3103 14.8886 16.1877 15.1273 15.7345 15.3937C15.2904 15.6549 14.6379 15.8721 13.8529 16.0419C12.2917 16.3797 10.3544 16.5 8.90514 16.5V17.5C10.3918 17.5 12.407 17.3779 14.0644 17.0193C14.8888 16.8409 15.6621 16.5964 16.2414 16.2558C16.8117 15.9205 17.3103 15.4174 17.3103 14.6989H16.3103ZM11.4245 10.4624C12.9124 10.7843 14.149 11.3795 15.0036 12.1311C15.8553 12.8803 16.3103 13.7657 16.3103 14.6989H17.3103C17.3103 13.4124 16.6766 12.271 15.664 11.3803C14.6543 10.4921 13.2509 9.83444 11.636 9.48498L11.4245 10.4624ZM8.9045 1.5C6.44572 1.5 4.41452 3.43316 4.41452 5.84798H5.41452C5.41452 4.01931 6.96352 2.5 8.9045 2.5V1.5ZM13.3945 5.84798C13.3945 3.43316 11.3633 1.5 8.9045 1.5V2.5C10.8455 2.5 12.3945 4.01932 12.3945 5.84798H13.3945ZM8.9045 10.1956C11.3632 10.1956 13.3945 8.26286 13.3945 5.84798H12.3945C12.3945 7.67659 10.8455 9.19564 8.9045 9.19564V10.1956ZM4.41452 5.84798C4.41452 8.26286 6.44578 10.1956 8.9045 10.1956V9.19564C6.96346 9.19564 5.41452 7.67659 5.41452 5.84798H4.41452ZM8.90453 15.5001C6.82633 15.5001 5.1779 15.2882 4.0455 15.0273C3.47737 14.8965 3.05164 14.7561 2.77084 14.6306C2.62916 14.5672 2.53945 14.5142 2.49012 14.4777C2.42104 14.4265 2.48554 14.4493 2.5168 14.5623L1.55305 14.829C1.61507 15.0531 1.78544 15.2001 1.89455 15.281C2.02341 15.3765 2.18422 15.4637 2.36262 15.5434C2.72198 15.7041 3.21466 15.8621 3.82101 16.0018C5.03758 16.2821 6.76243 16.5001 8.90453 16.5001V15.5001ZM15.2914 14.5646C15.3224 14.45 15.3881 14.4262 15.3193 14.4774C15.2704 14.5138 15.1811 14.5666 15.0396 14.63C14.7593 14.7555 14.3338 14.8959 13.7657 15.0269C12.6333 15.288 10.9841 15.5001 8.90453 15.5001V16.5001C11.048 16.5001 12.7737 16.2818 13.9903 16.0014C14.5967 15.8616 15.0893 15.7035 15.4483 15.5426C15.6266 15.4628 15.7873 15.3756 15.9161 15.2798C16.0249 15.1989 16.1959 15.051 16.2568 14.8254L15.2914 14.5646ZM8.90453 11.1958C10.7244 11.1958 12.3509 11.628 13.5059 12.3004C14.6736 12.9803 15.2726 13.8452 15.2741 14.6959L16.2741 14.6941C16.2718 13.3393 15.3287 12.2046 14.009 11.4362C12.6765 10.6604 10.87 10.1958 8.90453 10.1958V11.1958ZM2.53493 14.6964C2.53616 13.8456 3.1351 12.9806 4.30286 12.3006C5.45781 11.6281 7.08444 11.1958 8.90453 11.1958V10.1958C6.93883 10.1958 5.13225 10.6605 3.79966 11.4364C2.47986 12.205 1.53689 13.3399 1.53493 14.6949L2.53493 14.6964Z" fill="#606060"/>
</svg>
