<svg width="30" height="22" viewBox="0 0 30 22" fill="none" xmlns="http://www.w3.org/2000/svg">
<path d="M25.9091 5.5H21.8182V0H2.72727C1.22727 0 0 1.2375 0 2.75V17.875H2.72727C2.72727 20.1575 4.55455 22 6.81818 22C9.08182 22 10.9091 20.1575 10.9091 17.875H19.0909C19.0909 20.1575 20.9182 22 23.1818 22C25.4455 22 27.2727 20.1575 27.2727 17.875H30V11L25.9091 5.5ZM6.81818 19.9375C5.68636 19.9375 4.77273 19.0163 4.77273 17.875C4.77273 16.7337 5.68636 15.8125 6.81818 15.8125C7.95 15.8125 8.86364 16.7337 8.86364 17.875C8.86364 19.0163 7.95 19.9375 6.81818 19.9375ZM25.2273 7.5625L27.9 11H21.8182V7.5625H25.2273ZM23.1818 19.9375C22.05 19.9375 21.1364 19.0163 21.1364 17.875C21.1364 16.7337 22.05 15.8125 23.1818 15.8125C24.3136 15.8125 25.2273 16.7337 25.2273 17.875C25.2273 19.0163 24.3136 19.9375 23.1818 19.9375Z" fill="white"/>
</svg>
