<svg width="45" height="45" viewBox="0 0 45 45" fill="none" xmlns="http://www.w3.org/2000/svg">
<g id="Frame 427320782">
<rect x="0.5" y="0.5" width="44" height="44" rx="9.5" fill="#FED52A"/>
<rect x="0.5" y="0.5" width="44" height="44" rx="9.5" stroke="#CBAA22"/>
<path id="Vector" d="M32.1977 18.9844H29.046L28.3743 14.8887C28.239 14.269 27.9418 13.6983 27.5142 13.2371C27.0867 12.776 26.5447 12.4416 25.946 12.2695C25.3444 12.072 24.7178 11.9654 24.086 11.9531H20.2281C19.5963 11.9654 18.9697 12.072 18.3681 12.2695C17.7693 12.4416 17.2274 12.776 16.7999 13.2371C16.3723 13.6983 16.0751 14.269 15.9397 14.8887L15.2681 18.9844H12.1163C11.9807 18.9835 11.8468 19.0154 11.7255 19.0774C11.6042 19.1394 11.499 19.2298 11.4184 19.3412C11.3378 19.4525 11.2842 19.5818 11.2618 19.7183C11.2394 19.8549 11.249 19.9949 11.2897 20.127L14.5275 31.2012C14.6923 31.7362 15.02 32.2036 15.4629 32.5355C15.9058 32.8674 16.4408 33.0465 16.9903 33.0469H27.3238C27.8703 33.0428 28.4015 32.862 28.8409 32.5303C29.2803 32.1987 29.6054 31.7333 29.7694 31.2012L33.0072 20.127C33.0475 19.9963 33.0573 19.8578 33.0358 19.7226C33.0143 19.5874 32.9622 19.4592 32.8836 19.3482C32.8049 19.2372 32.702 19.1465 32.5829 19.0833C32.4638 19.0202 32.3319 18.9863 32.1977 18.9844ZM17.0247 18.9844L17.6448 15.1699C17.7127 14.8585 17.8704 14.5749 18.0975 14.3556C18.3246 14.1364 18.6108 13.9914 18.9192 13.9395C19.3429 13.8023 19.7838 13.7268 20.2281 13.7109H24.086C24.5355 13.725 24.9815 13.8023 25.4121 13.9395C25.7205 13.9914 26.0067 14.1364 26.2338 14.3556C26.4609 14.5749 26.6186 14.8585 26.6865 15.1699L27.2893 18.9844H16.9559H17.0247Z" fill="white"/>
</g>
</svg>
