<svg width="11" height="11" viewBox="0 0 11 11" fill="none" xmlns="http://www.w3.org/2000/svg">
<path d="M5.15624 2.75H4.12499C3.26057 2.75 2.82882 2.75 2.56024 3.01858C2.29166 3.28717 2.29166 3.71892 2.29166 4.58333V7.44792H8.70832V4.58333C8.70832 3.71892 8.70832 3.28717 8.43974 3.01858C8.17116 2.75 7.73941 2.75 6.87499 2.75H5.84374V5.02929L6.15541 4.66537C6.18478 4.63107 6.22062 4.60288 6.26089 4.58242C6.30115 4.56197 6.34505 4.54964 6.39008 4.54615C6.43511 4.54266 6.48038 4.54808 6.52332 4.56208C6.56626 4.57609 6.60602 4.59842 6.64032 4.62779C6.67463 4.65716 6.70282 4.69301 6.72327 4.73327C6.74373 4.77354 6.75605 4.81744 6.75954 4.86247C6.76303 4.9075 6.75762 4.95277 6.74361 4.99571C6.72961 5.03864 6.70728 5.0784 6.67791 5.11271L5.76124 6.182C5.72897 6.21974 5.68891 6.25003 5.64381 6.27081C5.59871 6.29158 5.54964 6.30234 5.49999 6.30234C5.45034 6.30234 5.40127 6.29158 5.35617 6.27081C5.31107 6.25003 5.27101 6.21974 5.23874 6.182L4.32207 5.11271C4.2927 5.0784 4.27037 5.03864 4.25637 4.99571C4.24236 4.95277 4.23695 4.9075 4.24044 4.86247C4.24392 4.81744 4.25625 4.77354 4.27671 4.73327C4.29716 4.69301 4.32535 4.65716 4.35966 4.62779C4.39396 4.59842 4.43372 4.57609 4.47666 4.56208C4.51959 4.54808 4.56487 4.54266 4.6099 4.54615C4.65493 4.54964 4.69883 4.56197 4.73909 4.58242C4.77936 4.60288 4.8152 4.63107 4.84457 4.66537L5.15624 5.02929V2.75ZM2.30541 8.13542H8.69457C8.67074 8.4975 8.60795 8.72988 8.43974 8.89808C8.17116 9.16667 7.73941 9.16667 6.87499 9.16667H4.12499C3.26057 9.16667 2.82882 9.16667 2.56024 8.89808C2.39203 8.72988 2.32878 8.49796 2.30541 8.13542Z" fill="#FED52A"/>
<path d="M2.69914 1.375H8.30043C9.28585 1.375 10.0833 2.2 10.0833 3.2175C10.0833 3.80875 9.8143 4.33446 9.39585 4.67179V4.54254C9.39585 4.14562 9.39585 3.78171 9.35597 3.48608C9.31243 3.16021 9.2093 2.81554 8.92605 2.53275C8.64281 2.24904 8.29814 2.14592 7.97272 2.10192C7.67664 2.0625 7.31272 2.0625 6.9158 2.0625H4.08376C3.6873 2.0625 3.32339 2.0625 3.02776 2.10237C2.70189 2.14592 2.35722 2.24904 2.07443 2.53229C1.79072 2.81554 1.6876 3.16021 1.6436 3.48562C1.60418 3.78171 1.60418 4.14562 1.60418 4.54254V4.67179C1.38817 4.49619 1.21428 4.27439 1.0953 4.02271C0.976324 3.77103 0.915286 3.49588 0.91668 3.2175C0.91668 2.2 1.71464 1.375 2.69914 1.375Z" fill="#FED52A"/>
</svg>
