<svg width="47" height="46" viewBox="0 0 47 46" fill="none" xmlns="http://www.w3.org/2000/svg">
<rect x="0.5" width="46" height="46" rx="10" fill="#FED52A"/>
<rect x="1" y="0.5" width="45" height="45" rx="9.5" stroke="black" stroke-opacity="0.2"/>
<path d="M31.9 22.646V32C31.9 32.2652 31.7973 32.5196 31.6144 32.7071C31.4316 32.8946 31.1836 33 30.925 33H15.325C15.0664 33 14.8184 32.8946 14.6356 32.7071C14.4527 32.5196 14.35 32.2652 14.35 32V22.646C13.7205 21.916 13.3736 20.9746 13.375 20V14C13.375 13.7348 13.4777 13.4804 13.6606 13.2929C13.8434 13.1054 14.0914 13 14.35 13H31.9C32.1586 13 32.4066 13.1054 32.5894 13.2929C32.7723 13.4804 32.875 13.7348 32.875 14V20C32.876 20.9745 32.5291 21.9157 31.9 22.646ZM25.075 20C25.075 19.7348 25.1777 19.4804 25.3606 19.2929C25.5434 19.1054 25.7914 19 26.05 19C26.3086 19 26.5566 19.1054 26.7394 19.2929C26.9223 19.4804 27.025 19.7348 27.025 20C27.025 20.5304 27.2304 21.0391 27.5961 21.4142C27.9618 21.7893 28.4578 22 28.975 22C29.4922 22 29.9882 21.7893 30.3539 21.4142C30.7196 21.0391 30.925 20.5304 30.925 20V15H15.325V20C15.325 20.5304 15.5304 21.0391 15.8961 21.4142C16.2618 21.7893 16.7578 22 17.275 22C17.7922 22 18.2882 21.7893 18.6539 21.4142C19.0196 21.0391 19.225 20.5304 19.225 20C19.225 19.7348 19.3277 19.4804 19.5106 19.2929C19.6934 19.1054 19.9414 19 20.2 19C20.4586 19 20.7066 19.1054 20.8894 19.2929C21.0723 19.4804 21.175 19.7348 21.175 20C21.175 20.5304 21.3804 21.0391 21.7461 21.4142C22.1118 21.7893 22.6078 22 23.125 22C23.6422 22 24.1382 21.7893 24.5039 21.4142C24.8696 21.0391 25.075 20.5304 25.075 20Z" fill="white"/>
</svg>
