<svg width="24" height="87" viewBox="0 0 24 87" fill="none" xmlns="http://www.w3.org/2000/svg">
<path d="M24 87L0 87L3.64734e-08 83.9414L24 83.9414L24 87ZM23.9829 82.4364L5.44203e-08 82.4364L7.29467e-08 80.8828L23.9829 80.8828L23.9829 82.4364ZM23.9829 77.8242L1.0942e-07 77.8242L1.27367e-07 76.3192L23.9829 76.3192L23.9829 77.8242ZM23.9829 70.202L2.00314e-07 70.202L2.18261e-07 68.697L23.9829 68.697L23.9829 70.202ZM23.9829 64.0848L2.7326e-07 64.0848L3.09154e-07 61.0749L23.9829 61.0749L23.9829 64.0848ZM23.9829 56.4627L3.64154e-07 56.4627L3.82101e-07 54.9577L23.9829 54.9577L23.9829 56.4627ZM23.9829 53.4041L4.00628e-07 53.4041L4.18574e-07 51.8991L23.9829 51.8991L23.9829 53.4041ZM23.9829 50.3455L4.37101e-07 50.3455L4.55048e-07 48.8405L23.9829 48.8405L23.9829 50.3455ZM23.9829 44.2767L5.0947e-07 44.2767L5.45943e-07 41.2181L11.9915 41.2181L23.9829 41.2181L23.9829 44.2767ZM23.9829 36.6545L6.00364e-07 36.6545L6.36837e-07 33.5959L23.9829 33.5959L23.9829 36.6545ZM23.9829 30.5375L6.73308e-07 30.5375L7.09784e-07 27.4787L23.9829 27.4787L23.9829 30.5375ZM23.9829 24.4202L7.46257e-07 24.4202L7.82733e-07 21.3614L23.9829 21.3614L23.9829 24.4202ZM23.9829 19.8566L8.00678e-07 19.8566L8.37151e-07 16.798L23.9829 16.798L23.9829 19.8566ZM23.9829 12.1858L8.92151e-07 12.1858L9.46571e-07 7.62218L23.9829 7.62219L23.9829 12.1858ZM23.9829 6.11719L9.64518e-07 6.11719L9.83044e-07 4.56359L23.9829 4.56359L23.9829 6.11719ZM24 3.05859L1.00099e-06 3.05859L1.03746e-06 0L24 2.86197e-07L24 3.05859Z" fill="black"/>
</svg>
